<mxfile host="app.diagrams.net" modified="2023-08-31T19:03:02.359Z" agent="Mozilla/5.0 (Windows NT 10.0; Win64; x64) AppleWebKit/537.36 (KHTML, like Gecko) Chrome/116.0.0.0 Safari/537.36" etag="f94pqChpcN2rX4aS8iOJ" version="21.6.9" type="device">
  <diagram name="Страница — 1" id="E-58ZfPfu-zmKnDIzTa4">
    <mxGraphModel dx="933" dy="372" grid="1" gridSize="10" guides="1" tooltips="1" connect="1" arrows="1" fold="1" page="1" pageScale="1" pageWidth="1169" pageHeight="827" math="0" shadow="0">
      <root>
        <mxCell id="0" />
        <mxCell id="1" parent="0" />
        <mxCell id="EMKJKpB_8um9cFSYKYdb-1" value="&lt;pre style=&quot;background-color:#2b2b2b;color:#a9b7c6;font-family:&#39;JetBrains Mono&#39;,monospace;font-size:9,8pt;&quot;&gt;CutletMaker&lt;/pre&gt;" style="swimlane;fontStyle=0;childLayout=stackLayout;horizontal=1;startSize=26;fillColor=none;horizontalStack=0;resizeParent=1;resizeParentMax=0;resizeLast=0;collapsible=1;marginBottom=0;whiteSpace=wrap;html=1;" vertex="1" parent="1">
          <mxGeometry x="410" y="130" width="200" height="52" as="geometry">
            <mxRectangle x="410" y="170" width="110" height="50" as="alternateBounds" />
          </mxGeometry>
        </mxCell>
        <mxCell id="EMKJKpB_8um9cFSYKYdb-4" value="+ makeCutlet(Chopmeat): Cutlet" style="text;strokeColor=none;fillColor=none;align=left;verticalAlign=top;spacingLeft=4;spacingRight=4;overflow=hidden;rotatable=0;points=[[0,0.5],[1,0.5]];portConstraint=eastwest;whiteSpace=wrap;html=1;" vertex="1" parent="EMKJKpB_8um9cFSYKYdb-1">
          <mxGeometry y="26" width="200" height="26" as="geometry" />
        </mxCell>
        <mxCell id="EMKJKpB_8um9cFSYKYdb-10" value="Chopmeat" style="swimlane;fontStyle=0;childLayout=stackLayout;horizontal=1;startSize=26;fillColor=none;horizontalStack=0;resizeParent=1;resizeParentMax=0;resizeLast=0;collapsible=1;marginBottom=0;whiteSpace=wrap;html=1;" vertex="1" parent="1">
          <mxGeometry x="140" y="190" width="140" height="78" as="geometry" />
        </mxCell>
        <mxCell id="EMKJKpB_8um9cFSYKYdb-11" value="- weight: int" style="text;strokeColor=none;fillColor=none;align=left;verticalAlign=top;spacingLeft=4;spacingRight=4;overflow=hidden;rotatable=0;points=[[0,0.5],[1,0.5]];portConstraint=eastwest;whiteSpace=wrap;html=1;" vertex="1" parent="EMKJKpB_8um9cFSYKYdb-10">
          <mxGeometry y="26" width="140" height="26" as="geometry" />
        </mxCell>
        <mxCell id="EMKJKpB_8um9cFSYKYdb-43" value="- manufactured: Date" style="text;strokeColor=none;fillColor=none;align=left;verticalAlign=top;spacingLeft=4;spacingRight=4;overflow=hidden;rotatable=0;points=[[0,0.5],[1,0.5]];portConstraint=eastwest;whiteSpace=wrap;html=1;" vertex="1" parent="EMKJKpB_8um9cFSYKYdb-10">
          <mxGeometry y="52" width="140" height="26" as="geometry" />
        </mxCell>
        <mxCell id="EMKJKpB_8um9cFSYKYdb-21" value="" style="endArrow=open;endFill=1;endSize=12;html=1;rounded=0;entryX=1.008;entryY=0.126;entryDx=0;entryDy=0;entryPerimeter=0;exitX=-0.023;exitY=0.186;exitDx=0;exitDy=0;exitPerimeter=0;" edge="1" parent="1" source="EMKJKpB_8um9cFSYKYdb-1" target="EMKJKpB_8um9cFSYKYdb-10">
          <mxGeometry width="160" relative="1" as="geometry">
            <mxPoint x="510" y="190" as="sourcePoint" />
            <mxPoint x="670" y="190" as="targetPoint" />
          </mxGeometry>
        </mxCell>
        <mxCell id="EMKJKpB_8um9cFSYKYdb-22" value="Meat" style="swimlane;fontStyle=0;childLayout=stackLayout;horizontal=1;startSize=26;fillColor=none;horizontalStack=0;resizeParent=1;resizeParentMax=0;resizeLast=0;collapsible=1;marginBottom=0;whiteSpace=wrap;html=1;" vertex="1" parent="1">
          <mxGeometry x="140" y="304" width="140" height="78" as="geometry" />
        </mxCell>
        <mxCell id="EMKJKpB_8um9cFSYKYdb-26" value="- weight: int" style="text;strokeColor=none;fillColor=none;align=left;verticalAlign=top;spacingLeft=4;spacingRight=4;overflow=hidden;rotatable=0;points=[[0,0.5],[1,0.5]];portConstraint=eastwest;whiteSpace=wrap;html=1;" vertex="1" parent="EMKJKpB_8um9cFSYKYdb-22">
          <mxGeometry y="26" width="140" height="26" as="geometry" />
        </mxCell>
        <mxCell id="EMKJKpB_8um9cFSYKYdb-14" value="- manufactured: Date" style="text;strokeColor=none;fillColor=none;align=left;verticalAlign=top;spacingLeft=4;spacingRight=4;overflow=hidden;rotatable=0;points=[[0,0.5],[1,0.5]];portConstraint=eastwest;whiteSpace=wrap;html=1;" vertex="1" parent="EMKJKpB_8um9cFSYKYdb-22">
          <mxGeometry y="52" width="140" height="26" as="geometry" />
        </mxCell>
        <mxCell id="EMKJKpB_8um9cFSYKYdb-27" value="MeatToChopAdapter" style="swimlane;fontStyle=0;childLayout=stackLayout;horizontal=1;startSize=26;fillColor=none;horizontalStack=0;resizeParent=1;resizeParentMax=0;resizeLast=0;collapsible=1;marginBottom=0;whiteSpace=wrap;html=1;" vertex="1" parent="1">
          <mxGeometry x="370" y="304" width="210" height="52" as="geometry" />
        </mxCell>
        <mxCell id="EMKJKpB_8um9cFSYKYdb-29" value="+ meatChopper(Meat): Chopmeat" style="text;strokeColor=none;fillColor=none;align=left;verticalAlign=top;spacingLeft=4;spacingRight=4;overflow=hidden;rotatable=0;points=[[0,0.5],[1,0.5]];portConstraint=eastwest;whiteSpace=wrap;html=1;" vertex="1" parent="EMKJKpB_8um9cFSYKYdb-27">
          <mxGeometry y="26" width="210" height="26" as="geometry" />
        </mxCell>
        <mxCell id="EMKJKpB_8um9cFSYKYdb-31" value="" style="endArrow=open;endFill=1;endSize=12;html=1;rounded=0;entryX=1.032;entryY=0.137;entryDx=0;entryDy=0;entryPerimeter=0;exitX=0;exitY=0.25;exitDx=0;exitDy=0;" edge="1" parent="1" source="EMKJKpB_8um9cFSYKYdb-27" target="EMKJKpB_8um9cFSYKYdb-22">
          <mxGeometry width="160" relative="1" as="geometry">
            <mxPoint x="415" y="200" as="sourcePoint" />
            <mxPoint x="321" y="147" as="targetPoint" />
          </mxGeometry>
        </mxCell>
        <mxCell id="EMKJKpB_8um9cFSYKYdb-32" value="Extends" style="endArrow=block;endSize=16;endFill=0;html=1;rounded=0;exitX=0.119;exitY=-0.077;exitDx=0;exitDy=0;exitPerimeter=0;entryX=1;entryY=0.25;entryDx=0;entryDy=0;" edge="1" parent="1" source="EMKJKpB_8um9cFSYKYdb-27" target="EMKJKpB_8um9cFSYKYdb-10">
          <mxGeometry width="160" relative="1" as="geometry">
            <mxPoint x="510" y="270" as="sourcePoint" />
            <mxPoint x="670" y="270" as="targetPoint" />
          </mxGeometry>
        </mxCell>
        <mxCell id="EMKJKpB_8um9cFSYKYdb-33" value="returns Cutlet. ready to cook!" style="shape=note;size=20;whiteSpace=wrap;html=1;" vertex="1" parent="1">
          <mxGeometry x="680" y="130" width="180" height="60" as="geometry" />
        </mxCell>
        <mxCell id="EMKJKpB_8um9cFSYKYdb-42" value="" style="endArrow=none;html=1;rounded=0;exitX=1.006;exitY=0.362;exitDx=0;exitDy=0;exitPerimeter=0;entryX=0.002;entryY=0.213;entryDx=0;entryDy=0;entryPerimeter=0;" edge="1" parent="1" source="EMKJKpB_8um9cFSYKYdb-1" target="EMKJKpB_8um9cFSYKYdb-33">
          <mxGeometry relative="1" as="geometry">
            <mxPoint x="510" y="270" as="sourcePoint" />
            <mxPoint x="670" y="270" as="targetPoint" />
          </mxGeometry>
        </mxCell>
      </root>
    </mxGraphModel>
  </diagram>
</mxfile>
